<svg width="54" height="531" viewBox="0 0 54 531" fill="none" xmlns="http://www.w3.org/2000/svg">
<mask id="mask0_247_2236" style="mask-type:alpha" maskUnits="userSpaceOnUse" x="-421" y="0" width="475" height="531">
<path d="M-404.272 186.353C-380.393 228.272 -401.245 282.23 -375.304 347.368C-367.96 365.811 -364.462 376.626 -354.166 393.597C-304.17 476.003 -231.405 521.937 -135.344 529.148C-68.7301 534.148 10.1909 533.543 39.2442 467.249C68.6032 400.257 52.9719 315.214 2.83911 241.2C-52.3557 159.713 -100.519 102.416 -189.756 45.3169C-237.513 14.7592 -332.943 -27.7495 -387.831 24.9451C-429.618 65.0625 -428.15 144.434 -404.272 186.353Z" fill="#1090CB"/>
</mask>
<g mask="url(#mask0_247_2236)">
<rect x="-17" y="235" width="83" height="301" fill="#1090CB"/>
</g>
</svg>
