<svg width="900" height="43" viewBox="0 0 900 43" fill="none" xmlns="http://www.w3.org/2000/svg">
<path fill-rule="evenodd" clip-rule="evenodd" d="M14.0572 15.6859H26.8107C26.8107 15.6859 27.0374 16.6002 27.0374 18.2002C27.0374 25.8001 21.5959 30.8858 14.1706 30.8858C5.72491 30.8858 0 23.9716 0 16.8859C0 9.62887 6.065 2.94322 13.9438 3.00036C20.1222 3.00036 23.5231 6.77175 23.5231 6.77175L20.9158 9.51459C20.9158 9.51459 18.4217 6.77175 14.1139 6.77175C8.55902 6.77175 4.13781 11.2288 4.13781 17.0002C4.13781 22.8859 8.78575 27.1144 14.1139 27.1144C18.2517 27.1144 22.6729 24.7716 23.1264 19.4573H14.0572V15.6859ZM37.1836 12.886C31.9688 12.886 28.2278 17.0002 28.2278 21.8002C28.2278 26.7144 31.8554 30.8858 37.2969 30.8858C42.2283 30.8858 46.196 27.1715 46.196 21.9144C46.1394 15.9716 41.4914 12.886 37.1836 12.886ZM37.2402 16.4859C39.791 16.4859 42.2283 18.6002 42.2283 21.9144C42.2283 25.2287 39.8476 27.343 37.2402 27.343C34.4061 27.343 32.1955 25.0573 32.1955 21.8573C32.1388 18.7716 34.3495 16.4859 37.2402 16.4859ZM47.7265 21.8002C47.7265 17.0002 51.4675 12.886 56.6823 12.886C60.9901 12.886 65.6381 15.9716 65.6947 21.9144C65.6947 27.1715 61.727 30.8858 56.7956 30.8858C51.3541 30.8858 47.7265 26.7144 47.7265 21.8002ZM61.727 21.9144C61.727 18.6002 59.2897 16.4859 56.739 16.4859C53.8482 16.4859 51.6375 18.7716 51.6942 21.8573C51.6942 25.0573 53.9048 27.343 56.739 27.343C59.3463 27.343 61.727 25.2287 61.727 21.9144ZM75.7842 12.9431C70.9662 12.9431 67.2252 17.1716 67.2252 21.9144C67.2252 27.2858 71.5897 30.9429 75.6708 30.9429C78.2215 30.9429 79.5252 29.9715 80.6022 28.7715V30.5429C80.6022 33.6286 78.7317 35.5143 75.8976 35.5143C73.1768 35.5143 71.8164 33.4572 71.3063 32.3143L67.8487 33.7429C69.039 36.3143 71.4763 39 75.8409 39C80.6022 39 84.2298 35.9714 84.2298 29.6287V13.4574H80.4888V15.0002C79.4685 13.7431 77.8814 12.9431 75.7842 12.9431ZM76.1243 16.486C78.4483 16.486 80.8856 18.5431 80.8856 21.9716C80.8856 25.5144 78.5049 27.4001 76.0676 27.4001C73.5169 27.4001 71.1362 25.2859 71.1362 22.0288C71.1929 18.4859 73.6303 16.486 76.1243 16.486ZM92.6755 21.8573C92.6755 16.4859 96.4732 12.886 101.008 12.886C104.522 12.886 107.186 15.2859 108.376 18.0288L109 19.5145L97.04 24.543C97.7769 25.9144 98.9106 27.2858 101.405 27.2858C103.615 27.2858 104.976 26.0858 105.769 24.8287L108.887 26.943C107.526 28.7715 105.146 30.8858 101.405 30.8858C96.9267 30.8858 92.6755 27.5144 92.6755 21.8573ZM104.465 18.3145C103.899 17.2288 102.765 16.3716 101.121 16.3716C98.5705 16.3716 96.0764 19.0573 96.5299 21.6859L104.465 18.3145ZM90.9184 30.3715H87.0073V3.85748H90.9184V30.3715Z" fill="#6F718F"/>
<path fill-rule="evenodd" clip-rule="evenodd" d="M250.162 12.0289C250.162 13.3022 249.115 14.4019 247.778 14.4019C246.44 14.4019 245.394 13.3601 245.394 12.0289C245.394 10.6977 246.382 9.65594 247.778 9.65594C249.173 9.7717 250.162 10.8135 250.162 12.0289ZM240.451 16.7749C240.451 17.0064 240.451 17.3537 240.451 17.3537C240.451 17.3537 239.346 15.9067 236.962 15.9067C233.007 15.9067 229.925 18.9164 229.925 23.0257C229.925 27.135 232.949 30.1447 236.962 30.1447C239.404 30.1447 240.451 28.6399 240.451 28.6399V29.2765C240.451 29.5659 240.683 29.7974 240.974 29.7974H243.882V16.254C243.882 16.254 241.207 16.254 240.974 16.254C240.683 16.254 240.451 16.5434 240.451 16.7749ZM240.451 25.4566C239.927 26.2669 238.822 26.9614 237.543 26.9614C235.217 26.9614 233.472 25.5145 233.472 23.0836C233.472 20.6527 235.275 19.2058 237.543 19.2058C238.822 19.2058 239.985 19.9003 240.451 20.7106V25.4566ZM246.091 16.254H249.58V29.7974H246.091V16.254ZM298.021 15.9067C295.637 15.9067 294.532 17.3537 294.532 17.3537V9.7717H291.043V29.8553C291.043 29.8553 293.718 29.8553 293.95 29.8553C294.241 29.8553 294.474 29.6238 294.474 29.3344V28.6977C294.474 28.6977 295.579 30.2026 297.963 30.2026C301.917 30.2026 304.999 27.1929 304.999 23.0836C305.057 18.9164 301.975 15.9067 298.021 15.9067ZM297.439 26.9035C296.102 26.9035 295.055 26.209 294.532 25.3987V20.537C295.055 19.8425 296.218 19.0322 297.439 19.0322C299.766 19.0322 301.51 20.4791 301.51 22.91C301.51 25.3408 299.766 26.9035 297.439 26.9035ZM289.24 21.8103V29.9132H285.751V22.2154C285.751 19.9582 285.053 19.09 283.076 19.09C282.029 19.09 280.924 19.6109 280.227 20.4212V29.8553H276.737V16.254H279.471C279.761 16.254 279.994 16.4855 279.994 16.7749V17.3537C280.982 16.3119 282.378 15.9067 283.716 15.9067C285.228 15.9067 286.507 16.3119 287.495 17.18C288.775 18.2219 289.24 19.4952 289.24 21.8103ZM268.305 15.9067C265.921 15.9067 264.816 17.3537 264.816 17.3537V9.7717H261.327V29.8553C261.327 29.8553 264.002 29.8553 264.235 29.8553C264.526 29.8553 264.758 29.6238 264.758 29.3344V28.6977C264.758 28.6977 265.863 30.2026 268.247 30.2026C272.202 30.2026 275.284 27.1929 275.284 23.0836C275.342 18.9164 272.26 15.9067 268.305 15.9067ZM267.724 26.9035C266.386 26.9035 265.34 26.209 264.816 25.3987V20.537C265.34 19.8425 266.503 19.0322 267.724 19.0322C270.05 19.0322 271.794 20.4791 271.794 22.91C271.794 25.3408 270.05 26.9035 267.724 26.9035ZM258.303 15.9067C259.35 15.9067 259.873 16.0804 259.873 16.0804V19.2637C259.873 19.2637 256.966 18.2797 255.163 20.3633V29.8553H251.674V16.254C251.674 16.254 254.349 16.254 254.582 16.254C254.872 16.254 255.105 16.4855 255.105 16.7749V17.3537C255.803 16.6013 257.257 15.9067 258.303 15.9067ZM222.191 28.6399C222.017 28.2347 221.842 27.7138 221.668 27.3666C221.377 26.7299 221.086 26.0932 220.853 25.5145L220.795 25.4566C218.295 20.074 215.62 14.5756 212.77 9.13505L212.654 8.90354C212.363 8.38264 212.073 7.80386 211.782 7.22508C211.433 6.58842 211.084 5.89389 210.502 5.25723C209.339 3.81029 207.653 3 205.908 3C204.106 3 202.478 3.81029 201.256 5.14148C200.675 5.83601 200.268 6.47267 199.919 7.1672C199.628 7.74598 199.337 8.32476 199.047 8.84566L198.93 9.07717C196.139 14.4598 193.406 19.9582 190.905 25.3987L190.847 25.4566C190.615 26.0354 190.324 26.672 190.033 27.3087C189.859 27.7138 189.684 28.119 189.51 28.582C189.044 29.9132 188.87 31.1865 189.103 32.4598C189.51 35.1801 191.312 37.4373 193.813 38.4212C194.743 38.8264 195.732 39 196.72 39C197.011 39 197.36 38.9421 197.651 38.9421C198.872 38.8264 200.093 38.4212 201.256 37.7267C202.768 36.9164 204.164 35.701 205.734 33.9646C207.304 35.701 208.758 36.8585 210.212 37.7267C211.433 38.4212 212.654 38.8264 213.817 38.9421C214.108 39 214.457 39 214.748 39C215.736 39 216.783 38.8264 217.655 38.4212C220.214 37.4373 221.958 35.1222 222.365 32.4598C222.772 31.1865 222.656 29.9711 222.191 28.6399ZM205.85 30.492C203.873 28.0611 202.652 25.746 202.187 23.7781C202.012 22.9679 201.954 22.2154 202.07 21.5788C202.129 21 202.361 20.4791 202.652 20.074C203.35 19.09 204.513 18.5113 205.85 18.5113C207.188 18.5113 208.409 19.09 209.049 20.074C209.339 20.4791 209.572 21 209.63 21.5788C209.746 22.2154 209.688 22.9679 209.514 23.7781C209.049 25.6881 207.769 28.0032 205.85 30.492ZM220.272 32.1704C220.039 34.0225 218.76 35.6431 216.957 36.3955C216.085 36.7428 215.155 36.8585 214.224 36.7428C213.294 36.627 212.421 36.3376 211.491 35.8167C210.212 35.1222 208.874 33.9646 207.362 32.3441C209.746 29.4502 211.2 26.7299 211.724 24.3569C211.956 23.2572 212.014 22.2154 211.898 21.2894C211.782 20.3634 211.433 19.5531 210.91 18.8585C209.805 17.238 207.886 16.3119 205.792 16.3119C203.699 16.3119 201.78 17.2958 200.675 18.8585C200.151 19.5531 199.861 20.4212 199.686 21.2894C199.57 22.2154 199.57 23.2572 199.861 24.3569C200.384 26.7299 201.896 29.4502 204.222 32.3441C202.71 34.0225 201.373 35.1222 200.093 35.8167C199.163 36.3376 198.232 36.627 197.36 36.7428C196.372 36.8585 195.441 36.6849 194.627 36.3955C192.824 35.701 191.603 34.0225 191.312 32.1704C191.196 31.2444 191.254 30.3762 191.661 29.3344C191.778 28.9872 191.952 28.6399 192.126 28.1769C192.359 27.5981 192.65 26.9614 192.941 26.3826L192.999 26.3248C195.499 20.9421 198.174 15.4437 200.966 10.119L201.082 9.88747C201.373 9.36657 201.663 8.78779 201.954 8.20901C202.245 7.63024 202.594 7.10934 202.943 6.64631C203.699 5.77815 204.745 5.31512 205.85 5.31512C206.955 5.31512 208.002 5.77815 208.758 6.64631C209.165 7.10934 209.456 7.63024 209.746 8.20901C210.037 8.72992 210.328 9.30869 210.619 9.88747L210.735 10.119C213.468 15.5016 216.143 21 218.644 26.3248V26.3826C218.934 26.9614 219.167 27.5981 219.458 28.1769C219.632 28.582 219.807 28.9872 219.923 29.3344C220.33 30.3183 220.446 31.2444 220.272 32.1704Z" fill="#6F718F"/>
<path fill-rule="evenodd" clip-rule="evenodd" d="M493.659 20.3474L493.659 20.3476C493.356 21.485 492.214 25.7716 488.681 25.7716C487.104 25.7716 486.003 24.6105 485.343 23.1954C490.258 22.1069 491.908 18.2608 491.908 15.6484C491.908 12.6005 489.708 11.4757 487.837 11.4757C484.793 11.4757 480.796 14.3059 480.796 19.7847C480.796 20.2927 480.832 20.7644 480.869 21.1998C479.805 20.8733 478.888 20.329 478.265 19.3856C479.182 15.3218 479.035 11.4394 477.128 11.4394C476.064 11.4394 475.148 12.8182 475.148 15.8661C475.148 17.0634 475.478 18.406 476.101 19.6033C475.698 21.4538 474.377 25.953 472.654 25.953C470.618 25.953 470.899 17.6325 471.01 14.3564C471.027 13.8543 471.04 13.4706 471.04 13.2536C471.04 11.9111 467.776 10.5323 467.079 11.2217C466.786 11.512 466.712 13.3262 466.712 15.6484C466.712 17.5714 466.859 19.821 467.299 21.9255C467.079 23.0503 466.089 25.9893 464.292 25.9893C461.995 25.9893 462.537 18.8688 462.799 15.4291V15.429C462.855 14.6945 462.898 14.1279 462.898 13.8342C462.898 12.6368 459.781 11.512 459.01 12.2377C458.717 12.528 458.497 14.6687 458.497 17.9705C458.497 19.3493 458.57 20.8007 458.79 22.1795C458.497 23.6308 457.323 25.9893 455.453 25.9893C452.458 25.9893 453.755 14.6198 454.563 7.53769L454.573 7.44819C455.049 7.37575 455.561 7.3033 456.074 7.23086L456.076 7.23049C456.181 7.21899 456.287 7.20682 456.395 7.19453L456.397 7.19423C457.644 7.0515 459.01 6.89509 459.01 7.62961C459.01 9.48009 460.257 10.0606 461.174 10.0606C462.201 10.0606 463.081 9.2624 463.081 7.73846C463.081 6.25082 461.761 4.83574 459.451 4.83574C457.91 4.83574 456.333 5.01716 454.793 5.27115C454.822 4.95031 454.852 4.65032 454.879 4.37186C454.954 3.61111 455.013 3.01113 455.013 2.58614C455.013 1.02593 451.749 -0.497996 451.089 0.155119C450.979 0.263967 450.539 2.73128 450.135 6.17825C447.861 6.61366 445.624 7.01278 443.387 7.01278C442.617 7.01278 442.727 9.33496 445.331 9.33496C446.834 9.33496 448.338 9.00841 449.878 8.60928C449.658 11.004 449.512 13.6528 449.512 16.1926C449.512 18.4785 449.658 20.4741 449.952 22.1795C449.658 23.4494 448.741 26.0256 447.018 26.0256C444.272 26.0256 444.902 18.215 445.191 14.6289C445.249 13.9046 445.294 13.3527 445.294 13.0722C445.294 12.274 442.287 10.5323 441.663 11.1492C441.59 11.2217 441.516 11.7297 441.516 11.7297C441.516 11.7297 441.113 11.4394 440.013 11.4394C435.795 11.4394 432.421 16.5918 432.421 21.2724C432.421 21.4901 432.421 21.7078 432.458 21.9255C431.798 23.4494 430.147 26.0619 427.176 26.0619C425.673 26.0619 424.609 25.0822 423.876 23.8123C428.497 22.506 430.294 18.5148 430.294 15.9386C430.294 12.9271 427.727 11.4394 425.856 11.4394C422.592 11.4394 419.035 14.6687 419.035 20.1113C419.035 21.7078 419.328 23.0503 419.841 24.2114C419.255 25.1185 418.374 26.0256 417.164 26.0256C414.399 26.0256 415.427 18.4946 415.888 15.1179L415.888 15.1178C415.99 14.3745 416.064 13.8325 416.064 13.6165C416.064 13.3262 416.064 12.7457 415.514 12.3828C415.02 12.0232 412.836 11.6635 411.12 11.3811L411.12 11.3811L411.119 11.3808C410.412 11.2645 409.785 11.1613 409.389 11.0766V10.2783C409.389 8.10131 408.032 7.62961 407.115 7.62961C405.611 7.62961 405.318 9.29867 405.318 9.6978C405.318 10.0969 405.428 11.512 406.932 12.3465C406.932 16.3741 404.328 25.9167 397.36 25.9167C392.078 25.9167 390.171 20.5467 390.171 16.5555C390.171 9.80665 394.169 4.61805 396.736 4.61805C398.345 4.61805 398.441 6.16044 398.537 7.70718C398.633 9.26269 398.73 10.8226 400.367 10.8226C402.641 10.8226 402.971 8.64557 402.971 7.62961C402.971 5.74285 400.99 2.2233 396.736 2.2233C389.988 2.2233 385 10.3509 385 17.3174C385 24.03 389.658 29.4 396.186 29.4C406.272 29.4 408.766 18.8051 409.279 12.8908C409.513 12.9552 409.863 13.0333 410.223 13.1137L410.223 13.1137C410.878 13.26 411.568 13.414 411.663 13.5076C411.78 13.6233 411.684 14.4317 411.544 15.6034C411.378 17.004 411.149 18.9239 411.149 20.8007C411.149 25.1185 412.58 28.6017 416.027 28.6017C418.191 28.6017 419.915 27.0415 420.832 25.8442C422.225 27.6221 424.242 28.5292 426.223 28.5292C429.634 28.5292 431.871 26.4247 432.971 24.7557C433.925 27.2955 435.868 28.5292 437.629 28.5292C440.086 28.5292 441.553 25.2636 441.626 24.7557C442.36 27.0415 444.084 28.6017 446.027 28.6017C448.485 28.6017 449.988 26.3884 450.575 25.0096C451.455 27.3318 452.849 28.6017 454.866 28.6017C457.177 28.6017 458.68 26.5336 459.377 25.1548C460.111 27.1867 461.321 28.6017 463.228 28.6017C465.795 28.6017 467.409 25.9893 467.923 24.6831C468.766 26.9327 470.086 28.5292 472.14 28.5292C474.414 28.5292 476.395 25.2999 477.568 21.6715C478.522 22.5786 479.769 23.2317 481.272 23.4131C482.409 26.6787 485.087 28.4929 487.911 28.4929C492.825 28.4929 494.732 23.4857 494.952 22.3246C495.246 21.1272 494.109 19.7122 493.742 20.075C493.728 20.0885 493.702 20.1864 493.659 20.3474ZM425.709 12.9996C427.763 12.9996 426.553 20.7644 423.179 22.0343C422.922 21.1998 422.812 20.4016 422.812 19.7847C422.775 17.1723 423.839 12.9996 425.709 12.9996ZM438.216 25.3362C434.622 25.3362 437.152 13.0359 440.013 13.0359C441.92 13.0359 441.626 25.3362 438.216 25.3362ZM487.36 13.0722C489.341 13.0722 488.204 21.091 484.756 21.5989C484.573 20.9458 484.5 20.2927 484.5 19.7847C484.5 17.1723 485.49 13.0722 487.36 13.0722ZM419.216 34.3H418.022C417.948 34.3 417.873 34.3378 417.836 34.4132L415.71 37.999C415.598 38.1123 415.524 38.1123 415.449 37.999L413.398 34.4132C413.361 34.3378 413.286 34.3 413.212 34.3H412.056C411.907 34.3 411.795 34.4132 411.795 34.5642V41.7358C411.795 41.8868 411.907 42 412.056 42H413.212C413.361 42 413.473 41.8868 413.473 41.7358V38.0368C413.473 37.8103 413.697 37.6971 413.846 37.8858L415.449 40.528C415.561 40.6789 415.748 40.6789 415.822 40.528L417.463 37.8858C417.612 37.6971 417.836 37.8103 417.836 38.0368V41.7358C417.836 41.8868 417.948 42 418.097 42H419.29C419.439 42 419.551 41.8868 419.551 41.7358V34.5642C419.477 34.4132 419.365 34.3 419.216 34.3ZM427.589 34.3C427.697 34.3 427.77 34.3759 427.806 34.4518L430.811 41.6587C430.883 41.8104 430.774 42 430.593 42H429.399C429.29 42 429.218 41.9242 429.182 41.8483L428.711 40.6345C428.675 40.5587 428.602 40.4828 428.494 40.4828H425.417C425.308 40.4828 425.236 40.5587 425.199 40.6345L424.765 41.8483C424.729 41.9242 424.656 42 424.548 42H423.317C423.136 42 423.027 41.8104 423.1 41.6587L426.141 34.4518C426.177 34.3759 426.249 34.3 426.358 34.3H427.589ZM426.213 39.0035H427.77C427.914 39.0035 428.059 38.8138 428.023 38.6621L427.227 36.5759C427.154 36.3862 426.865 36.3862 426.792 36.5759L425.996 38.6621C425.923 38.8138 426.032 39.0035 426.213 39.0035ZM449.38 37.5083C449.309 37.5838 449.309 37.7348 449.38 37.8103L451.945 41.6226C452.051 41.7735 451.945 42 451.766 42H450.413C450.342 42 450.271 41.9623 450.235 41.8868L448.454 39.1691C448.383 39.0559 448.205 39.0559 448.098 39.1691L447.172 40.3392C447.172 40.3581 447.163 40.3864 447.155 40.4147C447.146 40.443 447.137 40.4713 447.137 40.4902V41.7358C447.137 41.849 447.066 41.9623 446.923 41.9623H445.855C445.748 41.9623 445.641 41.8868 445.641 41.7358V34.5265C445.641 34.4132 445.712 34.3 445.855 34.3H446.923C447.03 34.3 447.137 34.3755 447.137 34.5265V37.4706C447.137 37.6971 447.386 37.8103 447.529 37.6216L449.986 34.3755C450.021 34.3378 450.093 34.3 450.164 34.3H451.375C451.553 34.3 451.66 34.5265 451.553 34.6775L449.38 37.5083ZM461.597 40.4448H458.084C457.938 40.4448 457.828 40.3311 457.828 40.1793V39.0414C457.828 38.8897 457.938 38.7759 458.084 38.7759H460.426C460.573 38.7759 460.682 38.6621 460.682 38.5104V37.6759C460.682 37.5242 460.573 37.4104 460.426 37.4104H458.084C457.938 37.4104 457.828 37.2966 457.828 37.1448V36.0448C457.828 35.8931 457.938 35.7793 458.084 35.7793H461.341C461.487 35.7793 461.597 35.6655 461.597 35.5138V34.5655C461.597 34.4138 461.487 34.3 461.341 34.3H456.474C456.328 34.3 456.218 34.4138 456.218 34.5655V41.7345C456.218 41.8862 456.328 42 456.474 42H461.597C461.744 42 461.853 41.8862 461.853 41.7345V40.7862C461.89 40.5586 461.744 40.4448 461.597 40.4448ZM465.604 34.3H471.561C471.671 34.3 471.78 34.4045 471.707 34.509V35.4144C471.707 35.5189 471.634 35.6234 471.488 35.6234H469.551C469.441 35.6234 469.332 35.6931 469.332 35.8323V41.0911C469.332 41.1955 469.259 41.3 469.112 41.3H467.979C467.87 41.3 467.76 41.2304 467.76 41.0911V35.8323C467.76 35.7279 467.687 35.6234 467.541 35.6234H465.604C465.494 35.6234 465.385 35.5538 465.385 35.4144V34.509C465.385 34.4045 465.458 34.3 465.604 34.3ZM437.502 34.3C439.521 34.3 440.705 35.5079 440.705 37.1687C440.705 38.1878 440.287 38.8672 439.73 39.3579C439.66 39.4334 439.626 39.5466 439.66 39.6598L440.601 41.6603C440.67 41.8113 440.566 42 440.392 42H439.173C439.069 42 438.999 41.9246 438.964 41.8491L438.163 40.1128C438.107 39.9901 438.05 39.992 437.9 39.9971C437.865 39.9982 437.826 39.9996 437.78 39.9996H437.641H436.805C436.596 39.9996 436.561 40.0373 436.561 40.226V41.7358C436.561 41.8491 436.492 41.9623 436.352 41.9623H435.273C435.169 41.9623 435.064 41.8868 435.064 41.7358V34.5643C435.064 34.451 435.134 34.3378 435.273 34.3378C436.039 34.3 436.77 34.3 437.502 34.3ZM437.327 38.5359C437.42 38.5317 437.513 38.5275 437.606 38.5275C438.686 38.452 439.173 37.8858 439.173 37.1687C439.173 36.3005 438.477 35.8476 437.571 35.8098C437.258 35.7721 437.014 35.7721 436.77 35.7721C436.666 35.7721 436.561 35.8476 436.561 35.9986V38.301C436.561 38.4142 436.631 38.5275 436.77 38.5275C436.956 38.5526 437.142 38.5443 437.327 38.5359Z" fill="#6F718F"/>
<path fill-rule="evenodd" clip-rule="evenodd" d="M605.869 35.7846L605.867 35.773C605.776 35.1557 602.08 10.059 602.018 9.87217C602.018 9.68303 601.829 9.61998 601.702 9.61996C601.608 9.61996 600.057 9.51357 599.288 9.46038L598.862 9.43082L596.779 7.35027C596.765 7.33704 596.751 7.32504 596.735 7.31416C596.667 7.26582 596.567 7.2252 596.467 7.2242C596.334 7.20749 596.197 7.21531 596.103 7.22064L596.103 7.22066L596.067 7.22262L596.04 7.22381C596.033 7.22404 596.027 7.22417 596.021 7.22417C596.021 7.22417 595.579 7.35027 594.948 7.53941C594.317 5.71104 593.243 4.0718 591.287 4.0718H591.16C590.592 3.37828 589.898 3 589.33 3C584.785 3 582.638 8.67426 581.944 11.5744C580.176 12.1419 578.914 12.5201 578.788 12.5201L578.724 12.5411C577.838 12.8359 577.775 12.8568 577.651 13.7811C577.525 14.4116 575 34.3345 575 34.3345L594.952 38.0432L594.948 38.1174L605.869 35.7846ZM592.833 8.23485L592.833 8.23492C592.621 8.29301 592.4 8.35339 592.17 8.42208V8.0438C592.17 6.90894 591.981 6.02628 591.728 5.33276C592.802 5.39581 593.496 6.59371 593.875 7.9177C593.553 8.03807 593.206 8.1329 592.834 8.23469L592.834 8.23476L592.833 8.23485ZM591.034 8.6112C591.034 7.28721 590.845 6.27845 590.592 5.58493C589.456 6.02626 588.193 7.28721 587.562 9.87215C588.762 9.49386 589.961 9.11558 591.034 8.80034V8.6112ZM589.203 4.32401C589.393 4.32401 589.582 4.38705 589.772 4.51315C588.32 5.20667 586.741 6.90894 586.11 10.3765C585.371 10.6226 584.632 10.8302 583.923 11.0294L583.923 11.0294C583.724 11.0854 583.527 11.1408 583.333 11.1962C584.153 8.54817 585.984 4.32401 589.203 4.32401ZM591.35 15.6095L590.024 19.5814C590.024 19.5814 588.825 18.951 587.436 18.951C585.353 18.951 585.226 20.2749 585.226 20.5902C585.226 21.3157 585.972 21.8626 586.871 22.5223C588.238 23.525 589.961 24.7883 589.961 27.3362C589.961 30.6777 587.815 32.8214 584.974 32.8214C581.565 32.8214 579.798 30.6777 579.798 30.6777L580.681 27.6515C580.681 27.6515 582.512 29.2277 584.027 29.2277C585.037 29.2277 585.416 28.4711 585.416 27.8406C585.416 26.7886 584.661 26.1864 583.815 25.5108C582.733 24.6479 581.502 23.6653 581.502 21.4728C581.502 18.1944 583.838 15.042 588.635 15.042C590.466 15.042 591.35 15.6095 591.35 15.6095ZM683.262 17.0596H686.228L685.66 20.1489H682.693L680.421 32.0648H676.128L678.401 20.2119H676.381L677.012 16.9965H679.032L679.158 16.303C679.474 14.5377 680.168 12.7723 681.62 11.5114C682.757 10.5026 684.272 10.0613 685.787 10.0613C687.365 10.0613 688.122 10.4396 688.122 10.4396L687.302 13.7811C687.302 13.7811 686.67 13.592 685.913 13.592C684.524 13.592 683.64 14.9159 683.388 16.366L683.262 17.0596ZM633.834 16.7443C631.94 16.7443 630.488 17.627 629.289 19.014H629.225L630.867 10.3766H626.574L622.408 32.1909H626.7L628.152 24.7513C628.72 21.9142 630.172 20.2119 631.498 20.2119C632.445 20.2119 632.824 20.8424 632.824 21.7881C632.824 22.3555 632.761 23.1121 632.634 23.6795L630.993 32.1909H635.349L637.053 23.3643C637.242 22.4186 637.369 21.3468 637.369 20.5902C637.306 18.1944 636.043 16.7443 633.834 16.7443ZM618.557 23.049C617.484 22.4816 616.916 21.9772 616.916 21.2837C616.916 20.4011 617.673 19.8336 618.936 19.8336C620.325 19.8336 621.587 20.4011 621.587 20.4011L622.597 17.3748C622.597 17.3748 621.713 16.6813 618.999 16.6813C615.275 16.6813 612.686 18.8249 612.686 21.7881C612.686 23.4904 613.886 24.8144 615.527 25.697C616.853 26.4536 617.295 26.958 617.295 27.7145C617.295 28.5342 616.663 29.1646 615.401 29.1646C613.57 29.1646 611.929 28.2189 611.929 28.2189L610.856 31.2452C610.856 31.2452 612.434 32.317 615.085 32.317C618.936 32.317 621.65 30.4256 621.65 27.021C621.587 25.3188 620.198 24.0578 618.557 23.049ZM638.442 26.5167C638.442 21.4098 641.851 16.7443 646.964 16.7443C650.941 16.7443 652.772 19.5815 652.772 22.7338C652.772 27.9667 649.363 32.5061 644.313 32.5061C640.462 32.5061 638.442 29.8582 638.442 26.5167ZM644.881 29.1646C643.429 29.1646 642.798 27.9037 642.798 26.3906C642.798 23.9317 644.06 19.9597 646.396 19.9597C647.911 19.9597 648.416 21.2837 648.416 22.5447C648.353 25.1296 647.09 29.1646 644.881 29.1646ZM659.147 19.2662C659.147 19.2662 660.789 16.7443 663.692 16.7443C666.786 16.7443 668.048 19.2662 668.048 22.1664C668.048 27.3993 664.766 32.5061 659.779 32.5061C658.137 32.5061 657.254 31.9387 657.254 31.9387H657.19L655.991 38.2435H651.762L654.665 22.6708C655.044 20.9054 655.36 18.5727 655.549 16.9965H659.337L659.084 19.2662H659.147ZM659.589 29.1646C658.453 29.1646 657.822 28.5342 657.822 28.5342L658.516 24.5622C659.021 21.9142 660.41 20.1489 661.862 20.1489C663.187 20.1489 663.566 21.3468 663.566 22.4816C663.629 25.3187 661.988 29.1646 659.589 29.1646ZM671.709 13.0245C671.709 11.6375 672.783 10.5657 674.171 10.5657C675.434 10.5657 676.318 11.5114 676.318 12.7093C676.255 14.2855 675.118 15.1681 673.793 15.1681H673.729C672.53 15.1681 671.709 14.2855 671.709 13.0245ZM668.174 32.0648H672.467L675.371 16.9335H671.078L668.174 32.0648ZM696.455 17.0596C696.455 17.0596 693.804 23.8056 692.604 27.4624H692.541C692.478 26.2645 691.468 17.0596 691.468 17.0596H686.986L689.574 30.93C689.637 31.2452 689.574 31.4343 689.511 31.6235C689.006 32.5692 688.185 33.5149 687.175 34.2084C686.355 34.7759 685.471 35.1541 684.777 35.4063L685.976 39C686.86 38.8109 688.627 38.1174 690.142 36.6673C692.099 34.8389 693.867 32.0018 695.761 28.2189L701 17.0596H696.455Z" fill="#6F718F"/>
<path fill-rule="evenodd" clip-rule="evenodd" d="M798.212 23.6022L798.212 23.602C797.649 22.8239 797.12 22.0941 797.12 20.6189V14.8943C797.12 14.6908 797.122 14.489 797.123 14.2891C797.136 12.1107 797.149 10.1471 795.52 8.57951C794.098 7.22213 791.786 6.75 790.008 6.75C786.512 6.75 782.6 8.04836 781.771 12.3566C781.711 12.8287 782.008 13.0648 782.304 13.1238L785.86 13.4779C786.215 13.4779 786.453 13.1238 786.512 12.8287C786.808 11.3533 788.053 10.6451 789.475 10.6451C790.246 10.6451 791.075 10.9402 791.549 11.5893C792.002 12.2398 791.985 13.0599 791.97 13.834C791.967 13.9729 791.964 14.1104 791.964 14.2451V14.7172C791.672 14.7495 791.368 14.7808 791.055 14.8128H791.055C789.083 15.0151 786.777 15.2516 785.089 16.0156C782.778 17.0189 781.119 19.0254 781.119 22.0352C781.119 25.8123 783.549 27.7598 786.63 27.7598C789.238 27.7598 790.66 27.1697 792.675 25.1041C792.759 25.2249 792.835 25.3379 792.908 25.4453C793.404 26.1778 793.724 26.6488 794.809 27.5238C795.105 27.6418 795.461 27.6418 795.698 27.4648C796.409 26.8156 797.772 25.6352 798.483 25.0451C798.78 24.75 798.72 24.3369 798.483 23.9828C798.393 23.8525 798.302 23.7267 798.212 23.6022ZM791.253 22.3893C790.66 23.3926 789.771 24.0418 788.705 24.0418C787.282 24.0418 786.453 22.9795 786.453 21.3861C786.453 18.2582 789.238 17.7271 791.905 17.7271V18.4943L791.907 18.544C791.965 19.9383 792.014 21.1062 791.253 22.3893ZM839.178 14.8719L839.181 14.8717L839.184 14.8713C839.495 14.8394 839.797 14.8084 840.088 14.7762L840.206 14.3631L840.206 14.2616L840.207 14.1212C840.212 13.299 840.217 12.4055 839.732 11.7074C839.258 11.0582 838.428 10.7631 837.658 10.7631C836.235 10.7631 834.991 11.4713 834.695 12.9467C834.635 13.2418 834.398 13.5959 834.043 13.5959L830.487 13.2418C830.19 13.1828 829.894 12.9467 829.953 12.4746C830.783 8.1664 834.695 6.86804 838.191 6.86804C839.969 6.86804 842.281 7.34017 843.703 8.69755C845.331 10.2651 845.319 12.2288 845.306 14.4071L845.306 14.409C845.304 14.6083 845.303 14.8095 845.303 15.0123V20.7369C845.303 22.2122 845.832 22.942 846.395 23.7201L846.395 23.7205C846.485 23.845 846.576 23.9707 846.666 24.1008C846.903 24.3959 846.963 24.809 846.666 25.0451C845.955 25.6353 844.592 26.8156 843.881 27.4648C843.644 27.6418 843.288 27.6418 842.992 27.5238C841.906 26.6488 841.587 26.1778 841.091 25.4453C841.018 25.3379 840.942 25.2249 840.858 25.1041C838.843 27.1697 837.421 27.7598 834.813 27.7598C831.731 27.7598 829.301 25.8123 829.301 22.0353C829.301 19.0844 830.902 17.0779 833.213 16.0746C834.901 15.3106 837.207 15.0741 839.178 14.8719ZM836.887 24.0418C837.895 24.0418 838.843 23.3926 839.436 22.3893C840.096 21.1847 840.092 20.0817 840.088 18.7975C840.088 18.6976 840.088 18.5965 840.088 18.4943V17.7271C837.421 17.7271 834.635 18.2582 834.635 21.3861C834.635 22.9795 835.465 24.0418 836.887 24.0418ZM805.714 27.4647H802.039C801.684 27.4057 801.387 27.1697 801.328 26.8156V7.98933C801.328 7.63523 801.624 7.34015 802.039 7.34015H805.477C805.832 7.39917 806.129 7.63523 806.129 7.98933V10.468H806.188C807.136 8.10737 808.796 6.98605 811.048 6.98605C813.3 6.98605 814.781 8.10737 815.789 10.468C816.678 8.10737 818.693 6.98605 820.886 6.98605C822.427 6.98605 824.145 7.63523 825.153 9.05163C826.171 10.4198 826.14 12.3102 826.111 14.0876V14.0877V14.0878V14.0879V14.088C826.106 14.3804 826.101 14.6698 826.101 14.9533V26.8156C826.101 27.1697 825.805 27.4647 825.39 27.4647H821.715C821.36 27.4647 821.064 27.1697 821.064 26.8156V16.8418C821.064 16.6969 821.065 16.5175 821.067 16.316C821.077 15.3687 821.092 13.9335 820.945 13.3008C820.708 12.0615 819.878 11.7074 818.811 11.7074C817.922 11.7074 816.974 12.2975 816.619 13.2418C816.248 14.0852 816.256 15.4465 816.262 16.4846C816.262 16.6088 816.263 16.7283 816.263 16.8418V26.8156C816.263 27.1697 815.967 27.4647 815.552 27.4647H811.877C811.522 27.4647 811.225 27.1697 811.225 26.8156V16.8418C811.225 16.6199 811.229 16.3876 811.233 16.1497V16.1496V16.1495V16.1495V16.1494C811.267 14.1093 811.309 11.6483 808.973 11.6483C806.414 11.6483 806.42 14.4204 806.425 16.5739C806.425 16.6644 806.425 16.7538 806.425 16.8418V26.8156C806.425 27.1697 806.129 27.4647 805.714 27.4647ZM862.905 22.3893C860.771 21.209 858.341 20.8549 856.03 20.9139L862.312 12.0024C862.905 11.1762 863.201 10.7041 863.201 10.291V7.98933C863.201 7.57622 862.905 7.34015 862.49 7.34015H850.4C850.044 7.34015 849.748 7.63523 849.748 7.98933V10.6451C849.748 11.0582 850.044 11.2943 850.459 11.2943H856.741L849.511 21.6221C849.096 22.2713 849.096 23.0385 849.096 23.4516V26.1664C849.096 26.5795 849.511 26.9926 849.926 26.7565C854.015 24.5729 858.934 24.809 862.668 26.7565C863.142 26.9926 863.557 26.5205 863.557 26.1664V23.2746C863.498 23.0385 863.379 22.6254 862.905 22.3893ZM849.57 31.1238C848.859 31.1828 848.8 30.5926 849.392 30.1795C853.304 27.4058 859.823 28.232 860.534 29.2353C861.305 30.1205 860.297 36.6123 856.623 39.6812C856.089 40.1533 855.556 39.9172 855.793 39.268L855.836 39.1621C856.686 37.0472 858.504 32.5214 857.63 31.4189C856.776 30.3415 852.147 30.8441 849.84 31.0945H849.84L849.57 31.1238ZM829.953 37.9107C837.599 37.9107 846.014 36.3172 853.719 33.0713C854.904 32.5402 855.852 33.7795 854.667 34.7238C847.792 39.7402 837.776 42.4549 829.183 42.4549C817.152 42.4549 806.306 38.0287 798.069 30.6516C797.417 30.0615 798.009 29.2352 798.78 29.7074C807.67 34.8418 818.634 37.9107 829.953 37.9107ZM865.335 17.373C865.335 11.5303 868.239 6.98608 873.573 6.98608C879.025 6.98608 881.929 11.6484 881.988 17.55C881.988 23.2746 878.729 27.8189 873.573 27.8189C868.239 27.8189 865.335 23.1566 865.335 17.373ZM870.728 16.9183C870.727 19.2709 870.724 23.9828 873.573 23.9828C876.417 23.9828 876.536 20.0287 876.595 17.609C876.595 16.0746 876.536 14.1271 876.062 12.6516C875.647 11.3533 874.817 10.8221 873.632 10.8221C870.906 10.8221 870.728 14.4812 870.728 16.7828L870.728 16.9183ZM889.574 10.7631C890.582 8.2254 892.004 6.98605 894.553 6.98605C896.153 6.98605 897.753 7.57622 898.879 9.28769C899.827 10.7631 899.827 13.3008 899.827 15.1303V26.9336C899.768 27.2877 899.472 27.5238 899.116 27.5238H895.442C895.086 27.5238 894.849 27.2287 894.79 26.9336V16.7238C894.79 16.5655 894.791 16.4017 894.793 16.2341C894.81 14.2146 894.831 11.6483 892.478 11.6483C891.589 11.6483 890.76 12.2385 890.345 13.1238C889.811 14.2451 889.752 15.4254 889.752 16.6647V26.7565C889.752 27.1106 889.456 27.4057 889.041 27.4057H885.367C885.011 27.4057 884.715 27.1106 884.715 26.7565V7.98933C884.774 7.69425 885.07 7.39917 885.426 7.39917H888.804C889.1 7.39917 889.397 7.63523 889.456 7.93031V10.7631H889.574Z" fill="#6F718F"/>
</svg>
