<svg width="135" height="637" viewBox="0 0 135 637" fill="none" xmlns="http://www.w3.org/2000/svg">
<mask id="mask0_254_2246" style="mask-type:alpha" maskUnits="userSpaceOnUse" x="0" y="0" width="136" height="637">
<rect width="136" height="637" fill="#D9D9D9"/>
</mask>
<g mask="url(#mask0_254_2246)">
<path opacity="0.5" d="M15.924 577.544C40.8291 625.333 88.6514 634.988 142.484 632.534C240.71 628.055 339.605 589.782 410.349 533.287C481.094 476.791 509.339 400.293 515.952 336.126C525.976 238.859 517.121 219.839 473.966 154.518C442.468 106.84 420.986 83.707 359.234 42.7182C297.483 1.72947 191.454 -58.226 125.278 8.8559C72.8945 61.9574 124.965 196.404 124.965 196.404C124.965 196.404 150.953 258.096 143.566 308.114C135.919 359.883 75.8537 423.748 75.8537 423.748C75.8537 423.748 -13.867 520.381 15.924 577.544Z" fill="#2E3E97"/>
</g>
</svg>
