<svg width="287" height="180" viewBox="0 0 287 180" fill="none" xmlns="http://www.w3.org/2000/svg">
<g opacity="0.1">
<path d="M130.26 65.1349C130.26 29.2367 101.025 0 65.1298 0C29.2344 0 0 29.2367 0 65.1349C0 101.033 29.2344 130.27 65.1298 130.27C72.9009 130.27 80.6721 128.79 87.7031 126.199C86.2229 142.483 81.4122 159.136 73.271 174.68C72.5309 175.79 72.5309 177.271 72.9009 178.381C73.271 179.121 74.0111 179.861 74.7512 179.861C75.8614 180.231 76.9715 179.861 78.4518 178.751C93.9941 165.428 107.316 148.034 116.197 128.79C124.339 111.025 129.149 92.1511 129.889 72.1665C130.26 69.946 130.26 67.3554 130.26 65.1349Z" fill="#B3D2FF"/>
<path d="M287 65.1349C287 29.2367 257.765 0 221.87 0C185.975 0 156.74 29.2367 156.74 65.1349C156.74 101.033 185.975 130.27 221.87 130.27C229.641 130.27 237.412 128.79 244.443 126.199C242.963 142.483 238.152 159.136 230.011 174.68C229.271 175.79 229.271 177.271 229.641 178.381C230.011 179.121 230.751 179.861 231.491 179.861C232.602 180.231 233.712 179.861 235.192 178.751C250.734 165.428 264.056 148.034 272.938 128.79C281.079 111.025 285.89 92.1511 286.63 72.1665C287 69.946 287 67.3554 287 65.1349Z" fill="#B3D2FF"/>
</g>
</svg>
