<svg width="124" height="78" viewBox="0 0 124 78" fill="none" xmlns="http://www.w3.org/2000/svg">
<g opacity="0.1">
<path d="M56.2794 28.1419C56.2794 12.6319 43.6485 0 28.1397 0C12.6309 0 0 12.6319 0 28.1419C0 43.652 12.6309 56.2839 28.1397 56.2839C31.4973 56.2839 34.8549 55.6443 37.8927 54.525C37.2531 61.5605 35.1746 68.7559 31.6572 75.4716C31.3374 75.9513 31.3374 76.5909 31.4973 77.0705C31.6572 77.3903 31.9769 77.7101 32.2967 77.7101C32.7764 77.87 33.256 77.7101 33.8956 77.2304C40.6107 71.4741 46.3666 63.959 50.2038 55.6443C53.7213 47.9692 55.7998 39.8145 56.1195 31.18C56.2794 30.2206 56.2794 29.1013 56.2794 28.1419Z" fill="#B3D2FF"/>
<path d="M124 28.1419C124 12.6319 111.369 0 95.8604 0C80.3516 0 67.7207 12.6319 67.7207 28.1419C67.7207 43.652 80.3516 56.2839 95.8604 56.2839C99.218 56.2839 102.576 55.6443 105.613 54.525C104.974 61.5605 102.895 68.7559 99.3779 75.4716C99.0581 75.9513 99.0581 76.5909 99.218 77.0705C99.3779 77.3903 99.6976 77.7101 100.017 77.7101C100.497 77.87 100.977 77.7101 101.616 77.2304C108.331 71.4741 114.087 63.959 117.925 55.6443C121.442 47.9692 123.52 39.8145 123.84 31.18C124 30.2206 124 29.1013 124 28.1419Z" fill="#B3D2FF"/>
</g>
</svg>
