<svg width="16" height="12" viewBox="0 0 16 12" fill="none" xmlns="http://www.w3.org/2000/svg">
<path fill-rule="evenodd" clip-rule="evenodd" d="M15.1701 0.930084C15.3808 1.14102 15.4991 1.42696 15.4991 1.72508C15.4991 2.02321 15.3808 2.30915 15.1701 2.52008L6.02462 11.6656C5.91904 11.7711 5.79353 11.8545 5.6554 11.911C5.51727 11.9675 5.36927 11.9959 5.22004 11.9947C5.07081 11.9934 4.92332 11.9625 4.78616 11.9037C4.64899 11.8448 4.52491 11.7593 4.42112 11.6521L0.816618 7.92608C0.712951 7.8201 0.631254 7.69467 0.576224 7.55701C0.521193 7.41935 0.493915 7.27217 0.495956 7.12393C0.497998 6.97569 0.529319 6.82932 0.58812 6.69322C0.646921 6.55713 0.732042 6.434 0.838588 6.33091C0.945135 6.22782 1.07101 6.14681 1.20897 6.09253C1.34693 6.03825 1.49425 6.01178 1.64248 6.01463C1.79071 6.01748 1.93691 6.0496 2.07268 6.10914C2.20845 6.16869 2.33111 6.25448 2.43362 6.36158L5.24312 9.26558L13.5801 0.930084C13.7911 0.719408 14.077 0.601074 14.3751 0.601074C14.6732 0.601074 14.9592 0.719408 15.1701 0.930084Z" fill="#F1BF11"/>
</svg>
