<svg width="16" height="12" viewBox="0 0 16 12" fill="none" xmlns="http://www.w3.org/2000/svg">
<path fill-rule="evenodd" clip-rule="evenodd" d="M15.17 0.929962C15.3807 1.1409 15.499 1.42684 15.499 1.72496C15.499 2.02309 15.3807 2.30902 15.17 2.51996L6.0245 11.6655C5.91892 11.7709 5.79341 11.8544 5.65528 11.9108C5.51714 11.9673 5.36915 11.9958 5.21992 11.9945C5.07069 11.9933 4.92319 11.9623 4.78603 11.9035C4.64887 11.8447 4.52478 11.7592 4.421 11.652L0.816496 7.92596C0.712829 7.81998 0.631132 7.69455 0.576102 7.55689C0.521071 7.41923 0.493793 7.27205 0.495834 7.12381C0.497876 6.97557 0.529197 6.82919 0.587998 6.6931C0.646799 6.557 0.731919 6.43388 0.838466 6.33079C0.945013 6.2277 1.07088 6.14669 1.20884 6.09241C1.3468 6.03813 1.49413 6.01166 1.64236 6.01451C1.79058 6.01736 1.93679 6.04948 2.07256 6.10902C2.20833 6.16856 2.33099 6.25435 2.4335 6.36146L5.243 9.26546L13.58 0.929962C13.7909 0.719286 14.0769 0.600952 14.375 0.600952C14.6731 0.600952 14.9591 0.719286 15.17 0.929962Z" fill="#4461D7"/>
</svg>
